<?xml version="1.0" encoding="utf-8"?>
<!-- Generator: Adobe Illustrator 16.0.0, SVG Export Plug-In . SVG Version: 6.00 Build 0)  -->
<!DOCTYPE svg PUBLIC "-//W3C//DTD SVG 1.1//EN" "http://www.w3.org/Graphics/SVG/1.1/DTD/svg11.dtd">
<svg version="1.1" id="Layer_1" xmlns="http://www.w3.org/2000/svg" xmlns:xlink="http://www.w3.org/1999/xlink" x="0px" y="0px"
	 width="20px" height="16px" viewBox="0 0 20 16" enable-background="new 0 0 20 16" xml:space="preserve">
<g>
	<defs>
		<rect id="SVGID_1_" width="20" height="16"/>
	</defs>
	<clipPath id="SVGID_2_">
		<use xlink:href="#SVGID_1_"  overflow="visible"/>
	</clipPath>
	<path clip-path="url(#SVGID_2_)" fill="#FF8E62" d="M15.984,13.016h-15c-0.552,0-1-0.447-1-1v-11c0-0.552,0.448-1,1-1h15
		c0.553,0,1,0.448,1,1v11C16.984,12.568,16.537,13.016,15.984,13.016z M1.984,11.016h13v-9h-13V11.016z"/>
	<path clip-path="url(#SVGID_2_)" fill="#FF8E62" d="M18.984,16.016h-15c-0.552,0-1-0.447-1-1s0.448-1,1-1h14v-10
		c0-0.552,0.447-1,1-1s1,0.448,1,1v11C19.984,15.568,19.537,16.016,18.984,16.016z"/>
</g>
<path fill="#FF8E62" d="M6.998,9.252c-0.172,0-0.344-0.044-0.498-0.133C6.189,8.94,5.998,8.61,5.998,8.252V4.749
	c0-0.358,0.191-0.689,0.502-0.867s0.693-0.177,1.002,0.003l3.004,1.752c0.308,0.179,0.496,0.508,0.496,0.864
	c0,0.356-0.189,0.685-0.496,0.864L7.502,9.116C7.346,9.207,7.172,9.252,6.998,9.252z"/>
</svg>
