<?xml version="1.0" encoding="utf-8"?>
<!-- Generator: Adobe Illustrator 16.0.0, SVG Export Plug-In . SVG Version: 6.00 Build 0)  -->
<!DOCTYPE svg PUBLIC "-//W3C//DTD SVG 1.1//EN" "http://www.w3.org/Graphics/SVG/1.1/DTD/svg11.dtd">
<svg version="1.1" id="Layer_1" xmlns="http://www.w3.org/2000/svg" xmlns:xlink="http://www.w3.org/1999/xlink" x="0px" y="0px"
	 width="20px" height="16px" viewBox="0 0 20 16" enable-background="new 0 0 20 16" xml:space="preserve">
<g>
	<defs>
		<rect id="SVGID_1_" width="20" height="16"/>
	</defs>
	<clipPath id="SVGID_2_">
		<use xlink:href="#SVGID_1_"  overflow="visible"/>
	</clipPath>
	<g clip-path="url(#SVGID_2_)">
		<path fill="#FF8657" d="M17,12V1c0-0.552-0.447-1-1-1H1C0.448,0,0,0.448,0,1v10.1c0,0,0,0,0,0.001V12c0,0.553,0.448,1,1,1h15
			C16.553,13,17,12.553,17,12z M15,2v5.977l-1.645-1.685c-0.376-0.386-0.989-0.402-1.388-0.043l-2.482,2.25L6.658,5.416
			C6.473,5.214,6.212,5.097,5.938,5.092C5.673,5.085,5.4,5.195,5.208,5.39L2,8.65V2H15z M2.493,11l3.402-3.457l2.789,3.039
			c0.372,0.405,1,0.435,1.409,0.065l2.504-2.27L15,10.84V11H2.493z"/>
		<path fill="#FF8657" d="M19,3c-0.553,0-1,0.448-1,1v10H4c-0.552,0-1,0.447-1,1s0.448,1,1,1h15c0.553,0,1-0.447,1-1V4
			C20,3.448,19.553,3,19,3z"/>
		<path fill="#FF8657" d="M13,5c0.26,0,0.52-0.11,0.71-0.29C13.89,4.52,14,4.26,14,4c0-0.26-0.11-0.52-0.29-0.71
			c-0.37-0.37-1.05-0.37-1.42,0C12.109,3.48,12,3.74,12,4c0,0.26,0.109,0.52,0.29,0.71C12.479,4.89,12.74,5,13,5z"/>
	</g>
</g>
</svg>
