<?xml version="1.0" encoding="utf-8"?>
<!-- Generator: Adobe Illustrator 16.0.0, SVG Export Plug-In . SVG Version: 6.00 Build 0)  -->
<!DOCTYPE svg PUBLIC "-//W3C//DTD SVG 1.1//EN" "http://www.w3.org/Graphics/SVG/1.1/DTD/svg11.dtd">
<svg version="1.1" id="Layer_1" xmlns="http://www.w3.org/2000/svg" xmlns:xlink="http://www.w3.org/1999/xlink" x="0px" y="0px"
	 width="150px" height="120px" viewBox="0 0 150 120" enable-background="new 0 0 150 120" xml:space="preserve">
<g>
	<defs>
		<rect id="SVGID_1_" x="16" width="118" height="119"/>
	</defs>
	<clipPath id="SVGID_2_">
		<use xlink:href="#SVGID_1_"  overflow="visible"/>
	</clipPath>
	<path clip-path="url(#SVGID_2_)" fill="#55B5E7" d="M68.344,29.611H25.309c-4.174,0-7.558,3.381-7.558,7.551V65.11
		c0,4.171,3.384,7.553,7.558,7.553h11.694l38.898-25.18V37.162C75.901,32.992,72.518,29.611,68.344,29.611"/>
	<path clip-path="url(#SVGID_2_)" fill="#272626" d="M37.521,74.414H25.309C20.176,74.414,16,70.24,16,65.11V37.162
		c0-5.13,4.176-9.302,9.309-9.302h43.035c5.132,0,9.309,4.172,9.309,9.302v11.273L37.521,74.414z M25.309,31.361
		c-3.202,0-5.806,2.603-5.806,5.801V65.11c0,3.2,2.604,5.803,5.806,5.803h11.176L74.15,46.532v-9.37
		c0-3.198-2.604-5.801-5.806-5.801H25.309z"/>
	<path clip-path="url(#SVGID_2_)" fill="#FFD107" d="M110.752,47.483H44.558c-4.174,0-7.556,3.382-7.556,7.553v39.522
		c0,4.17,3.382,7.552,7.556,7.552h43.817l2.367,15.139l12.701-15.139h7.309c4.176,0,7.558-3.382,7.558-7.552V55.037
		C118.31,50.865,114.928,47.483,110.752,47.483"/>
	<path clip-path="url(#SVGID_2_)" fill="#272626" d="M90.742,119c-0.157,0-0.314-0.021-0.471-0.064
		c-0.662-0.184-1.153-0.738-1.26-1.416l-2.136-13.659H44.558c-5.131,0-9.307-4.173-9.307-9.302V55.037
		c0-5.13,4.176-9.304,9.307-9.304h66.194c5.133,0,9.311,4.173,9.311,9.304v39.522c0,5.129-4.178,9.302-9.311,9.302h-6.491
		l-12.177,14.515C91.746,118.775,91.252,119,90.742,119 M44.558,49.234c-3.2,0-5.804,2.603-5.804,5.803v39.522
		c0,3.198,2.604,5.801,5.804,5.801h43.817c0.863,0,1.598,0.627,1.73,1.479l1.772,11.333l10.224-12.188
		c0.333-0.396,0.823-0.625,1.342-0.625h7.309c3.201,0,5.807-2.603,5.807-5.801V55.037c0-3.2-2.605-5.803-5.807-5.803H44.558z"/>
	<path clip-path="url(#SVGID_2_)" fill="#089E49" d="M62.087,74.752c0,2.114-1.714,3.827-3.83,3.827
		c-2.115,0-3.829-1.713-3.829-3.827s1.714-3.827,3.829-3.827C60.373,70.925,62.087,72.638,62.087,74.752"/>
	<path clip-path="url(#SVGID_2_)" fill="#089E49" d="M81.484,74.752c0,2.114-1.712,3.827-3.829,3.827
		c-2.115,0-3.829-1.713-3.829-3.827s1.714-3.827,3.829-3.827C79.772,70.925,81.484,72.638,81.484,74.752"/>
	<path clip-path="url(#SVGID_2_)" fill="#089E49" d="M100.885,74.752c0,2.114-1.715,3.827-3.832,3.827
		c-2.115,0-3.829-1.713-3.829-3.827s1.714-3.827,3.829-3.827C99.17,70.925,100.885,72.638,100.885,74.752"/>
	<path clip-path="url(#SVGID_2_)" fill="#F15E5F" d="M70.37,1.75h55.539c3.502,0,6.339,2.837,6.339,6.337v33.159
		c0,3.499-2.837,6.335-6.339,6.335H89.146l-1.986,12.703L76.502,47.582H70.37c-3.503,0-6.341-2.836-6.341-6.335V8.087
		C64.029,4.587,66.867,1.75,70.37,1.75"/>
	<path clip-path="url(#SVGID_2_)" fill="#272626" d="M87.159,62.035c-0.51,0-1.005-0.223-1.342-0.625L75.686,49.333H70.37
		c-4.462,0-8.092-3.627-8.092-8.086V8.087C62.278,3.628,65.908,0,70.37,0h55.539C130.37,0,134,3.628,134,8.087v33.159
		c0,4.458-3.63,8.086-8.091,8.086H90.645l-1.754,11.222c-0.106,0.679-0.601,1.232-1.262,1.417
		C87.475,62.015,87.315,62.035,87.159,62.035 M70.37,3.501c-2.53,0-4.589,2.058-4.589,4.586v33.159c0,2.528,2.059,4.584,4.589,4.584
		h6.132c0.519,0,1.01,0.229,1.343,0.626l8.18,9.749l1.391-8.895c0.133-0.852,0.866-1.48,1.73-1.48h36.764
		c2.53,0,4.588-2.056,4.588-4.584V8.087c0-2.528-2.058-4.586-4.588-4.586H70.37z"/>
	<path clip-path="url(#SVGID_2_)" fill="#FFFFFF" d="M111.202,24.628c0,1.773,1.438,3.211,3.213,3.211
		c1.774,0,3.212-1.438,3.212-3.211s-1.438-3.211-3.212-3.211C112.64,21.417,111.202,22.854,111.202,24.628"/>
	<path clip-path="url(#SVGID_2_)" fill="#FFFFFF" d="M94.926,24.628c0,1.773,1.438,3.211,3.214,3.211
		c1.774,0,3.213-1.438,3.213-3.211s-1.438-3.211-3.213-3.211C96.364,21.417,94.926,22.854,94.926,24.628"/>
	<path clip-path="url(#SVGID_2_)" fill="#FFFFFF" d="M78.649,24.628c0,1.773,1.438,3.211,3.216,3.211
		c1.773,0,3.212-1.438,3.212-3.211s-1.438-3.211-3.212-3.211C80.088,21.417,78.649,22.854,78.649,24.628"/>
</g>
</svg>
