<?xml version="1.0" encoding="utf-8"?>
<!-- Generator: Adobe Illustrator 16.0.0, SVG Export Plug-In . SVG Version: 6.00 Build 0)  -->
<!DOCTYPE svg PUBLIC "-//W3C//DTD SVG 1.1//EN" "http://www.w3.org/Graphics/SVG/1.1/DTD/svg11.dtd">
<svg version="1.1" id="Layer_1" xmlns="http://www.w3.org/2000/svg" xmlns:xlink="http://www.w3.org/1999/xlink" x="0px" y="0px"
	 width="18px" height="18px" viewBox="0 0 18 18" enable-background="new 0 0 18 18" xml:space="preserve">
<g>
	<path fill="#bbbbbb" d="M9,18c-4.962,0-9-4.037-9-9s4.037-9,9-9c4.963,0,9,4.037,9,9S13.963,18,9,18z M9,1.805
		C5.032,1.805,1.805,5.032,1.805,9S5.032,16.195,9,16.195c3.968,0,7.196-3.228,7.196-7.195S12.968,1.805,9,1.805z"/>
	<path fill="#bbbbbb" d="M8.709,11.428c-0.499,0-0.902-0.403-0.902-0.902V9.513c0-0.825,0.742-1.328,1.376-1.508
		c0.359-0.141,0.65-0.563,0.649-1.025c0-0.622-0.504-1.126-1.124-1.126c-0.621,0-1.126,0.504-1.126,1.124
		c0,0.498-0.404,0.902-0.902,0.902c-0.498,0-0.902-0.404-0.902-0.902c0-1.615,1.315-2.929,2.931-2.929
		c1.614,0,2.928,1.313,2.928,2.929c0.003,1.207-0.756,2.308-1.886,2.738C9.697,9.733,9.65,9.75,9.611,9.767v0.759
		C9.611,11.024,9.207,11.428,8.709,11.428z"/>
	<path fill="#bbbbbb" d="M8.711,14.287c-0.638,0-1.156-0.519-1.156-1.155c0-0.638,0.519-1.155,1.156-1.155
		c0.638,0,1.157,0.518,1.157,1.155C9.869,13.769,9.35,14.287,8.711,14.287z"/>
</g>
</svg>
