<?xml version="1.0" encoding="utf-8"?>
<!-- Generator: Adobe Illustrator 16.0.0, SVG Export Plug-In . SVG Version: 6.00 Build 0)  -->
<!DOCTYPE svg PUBLIC "-//W3C//DTD SVG 1.1//EN" "http://www.w3.org/Graphics/SVG/1.1/DTD/svg11.dtd">
<svg version="1.1" id="Layer_1" xmlns="http://www.w3.org/2000/svg" xmlns:xlink="http://www.w3.org/1999/xlink" x="0px" y="0px"
	 width="20px" height="20px" viewBox="0 0 20 20" enable-background="new 0 0 20 20" xml:space="preserve">
<g>
	<path d="M10,0C4.486,0,0,4.486,0,10c0,5.514,4.486,10,10,10c5.514,0,10-4.486,10-10C20,4.486,15.514,0,10,0z M10,18
		c-4.411,0-8-3.589-8-8s3.589-8,8-8s8,3.589,8,8S14.411,18,10,18z"/>
	<path d="M10,5C9.448,5,9,5.448,9,6v5c0,0.553,0.448,1,1,1c0.553,0,1-0.447,1-1V6C11,5.448,10.553,5,10,5z"/>
	<path d="M9.29,13.29C9.11,13.479,9,13.74,9,14c0,0.27,0.11,0.52,0.29,0.71C9.48,14.899,9.74,15,10,15c0.26,0,0.52-0.101,0.71-0.29
		C10.89,14.52,11,14.26,11,14s-0.11-0.521-0.29-0.71C10.33,12.92,9.66,12.92,9.29,13.29z"/>
</g>
</svg>
