<?xml version="1.0" encoding="utf-8"?>
<!-- Generator: Adobe Illustrator 16.0.0, SVG Export Plug-In . SVG Version: 6.00 Build 0)  -->
<!DOCTYPE svg PUBLIC "-//W3C//DTD SVG 1.1//EN" "http://www.w3.org/Graphics/SVG/1.1/DTD/svg11.dtd">
<svg version="1.1" id="Layer_1" xmlns="http://www.w3.org/2000/svg" xmlns:xlink="http://www.w3.org/1999/xlink" x="0px" y="0px"
	 width="13.978px" height="13.978px" viewBox="0 0 13.978 13.978" enable-background="new 0 0 13.978 13.978" xml:space="preserve">
<g>
	<defs>
		<rect id="SVGID_1_" y="0" width="13.978" height="13.978"/>
	</defs>
	<clipPath id="SVGID_2_">
		<use xlink:href="#SVGID_1_"  overflow="visible"/>
	</clipPath>
	<path clip-path="url(#SVGID_2_)" fill="#FFFFFF" d="M12.978,2.396H7.989V1c0-0.552-0.447-1-1-1s-1,0.448-1,1v1.396H1
		c-0.552,0-1,0.448-1,1s0.448,1,1,1h0.238c-0.014,0.066-0.04,0.127-0.04,0.198v8.384c0,0.553,0.448,1,1,1h9.583c0.553,0,1-0.447,1-1
		V4.593c0-0.07-0.026-0.132-0.04-0.198h0.237c0.553,0,1-0.448,1-1S13.53,2.396,12.978,2.396z M10.78,4.593v7.384H3.198V4.593
		c0-0.07-0.026-0.132-0.04-0.198h7.663C10.807,4.461,10.78,4.523,10.78,4.593z"/>
</g>
<path fill="#FFFFFF" d="M5.791,9.885c-0.276,0-0.5-0.224-0.5-0.5V6.989c0-0.276,0.224-0.5,0.5-0.5c0.276,0,0.5,0.224,0.5,0.5v2.396
	C6.291,9.661,6.066,9.885,5.791,9.885z"/>
<path fill="#FFFFFF" d="M8.187,9.885c-0.276,0-0.5-0.224-0.5-0.5V6.989c0-0.276,0.224-0.5,0.5-0.5s0.5,0.224,0.5,0.5v2.396
	C8.687,9.661,8.463,9.885,8.187,9.885z"/>
</svg>
