<?xml version="1.0" encoding="utf-8"?>
<!-- Generator: Adobe Illustrator 16.0.0, SVG Export Plug-In . SVG Version: 6.00 Build 0)  -->
<!DOCTYPE svg PUBLIC "-//W3C//DTD SVG 1.1//EN" "http://www.w3.org/Graphics/SVG/1.1/DTD/svg11.dtd">
<svg version="1.1" id="Layer_1" xmlns="http://www.w3.org/2000/svg" xmlns:xlink="http://www.w3.org/1999/xlink" x="0px" y="0px"
	 width="220px" height="140px" viewBox="0 0 220 140" enable-background="new 0 0 220 140" xml:space="preserve">
<rect fill="#ff6858" width="219.999" height="140"/>
<g opacity="0.5">
	<path fill="#FFFFFF" d="M138.078,42.09c5.57,0,10.1-4.506,10.1-10.043c0-5.541-4.529-10.047-10.1-10.047
		s-10.103,4.506-10.103,10.047C127.976,37.584,132.508,42.09,138.078,42.09z M138.078,28.695c1.857,0,3.367,1.504,3.367,3.352
		c0,1.845-1.51,3.347-3.367,3.347c-1.859,0-3.367-1.502-3.367-3.347C134.711,30.2,136.219,28.695,138.078,28.695z"/>
	<path fill="#FFFFFF" d="M166.518,79.094l-26.033-25.978c-1.27-1.269-3.322-1.316-4.652-0.109l-9.954,9.024L106.81,43.069
		c-1.27-1.259-3.305-1.311-4.633-0.12L53.615,86.4c-1.384,1.236-1.496,3.354-0.25,4.727c1.243,1.377,3.371,1.484,4.755,0.25
		l46.187-41.329l48.246,47.971c0.656,0.652,1.518,0.98,2.381,0.98c0.861,0,1.723-0.328,2.381-0.98c1.314-1.309,1.314-3.426,0-4.734
		l-26.669-26.514l7.343-6.659L161.75,83.82c0.656,0.658,1.518,0.984,2.383,0.984c0.859,0,1.721-0.326,2.377-0.977
		C167.826,82.521,167.832,80.404,166.518,79.094z"/>
</g>
</svg>
