<?xml version="1.0" encoding="utf-8"?>
<!-- Generator: Adobe Illustrator 16.0.0, SVG Export Plug-In . SVG Version: 6.00 Build 0)  -->
<!DOCTYPE svg PUBLIC "-//W3C//DTD SVG 1.1//EN" "http://www.w3.org/Graphics/SVG/1.1/DTD/svg11.dtd">
<svg version="1.1" id="Layer_1" xmlns="http://www.w3.org/2000/svg" xmlns:xlink="http://www.w3.org/1999/xlink" x="0px" y="0px"
	 width="150px" height="120px" viewBox="0 0 150 120" enable-background="new 0 0 150 120" xml:space="preserve">
<g>
	<defs>
		<rect id="SVGID_1_" x="1" y="3" width="147.874" height="113"/>
	</defs>
	<clipPath id="SVGID_2_">
		<use xlink:href="#SVGID_1_"  overflow="visible"/>
	</clipPath>
	<path clip-path="url(#SVGID_2_)" fill="#FFD107" d="M75.558,86.07c-5.583,1.689-11.491-1.472-13.188-7.063l-2.111-6.972
		c-0.641-1.979-3.566-13.559,8.561-27.086c1.052-1.172,6.152-7.287,3.661-12.797c-3.401-7.531-10.073-6.792-13.743-5.679
		c-5.299,1.604-8.407,6.475-8.256,10.071c0.247,5.842-4.283,10.768-10.121,11.018c-5.843,0.249-10.769-4.284-11.014-10.125
		c-0.585-13.826,9.193-26.959,23.26-31.211c13.741-4.162,31.174-0.447,39.151,17.216c6.115,13.538,0.301,27.281-7.189,35.629
		c-3.605,4.025-3.887,6.726-3.897,7.375l1.949,6.432C84.313,78.469,81.153,84.371,75.558,86.07"/>
	<path clip-path="url(#SVGID_2_)" fill="none" stroke="#252525" stroke-width="3.3473" stroke-miterlimit="10" d="M75.558,86.07
		c-5.583,1.689-11.491-1.472-13.188-7.063l-2.111-6.972c-0.641-1.979-3.566-13.559,8.561-27.086
		c1.052-1.172,6.152-7.287,3.661-12.797c-3.401-7.531-10.073-6.792-13.743-5.679c-5.299,1.604-8.407,6.475-8.256,10.071
		c0.247,5.842-4.283,10.768-10.121,11.018c-5.843,0.249-10.769-4.284-11.014-10.125c-0.585-13.826,9.193-26.959,23.26-31.211
		c13.741-4.162,31.174-0.447,39.151,17.216c6.115,13.538,0.301,27.281-7.189,35.629c-3.605,4.025-3.887,6.726-3.897,7.375
		l1.949,6.432C84.313,78.469,81.153,84.371,75.558,86.07z"/>
	<path clip-path="url(#SVGID_2_)" fill="#FFD107" d="M92.311,99.98c1.774,5.878-1.537,12.083-7.416,13.866
		c-5.881,1.778-12.091-1.551-13.867-7.425c-1.784-5.881,1.542-12.084,7.418-13.867C84.324,90.778,90.533,94.101,92.311,99.98"/>
	<path clip-path="url(#SVGID_2_)" fill="none" stroke="#252525" stroke-width="3.3473" stroke-miterlimit="10" d="M92.311,99.98
		c1.774,5.878-1.537,12.083-7.416,13.866c-5.881,1.778-12.091-1.551-13.867-7.425c-1.784-5.881,1.542-12.084,7.418-13.867
		C84.324,90.778,90.533,94.101,92.311,99.98z"/>
	<path clip-path="url(#SVGID_2_)" fill="#66C192" d="M110.77,66.445l-1.949,6.431c-1.691,5.594,1.47,11.494,7.063,13.193
		c5.583,1.69,11.492-1.472,13.188-7.062l2.112-6.971l13.612-45.104l1.949-6.431c1.69-5.593-1.468-11.495-7.063-13.193
		c-5.581-1.69-11.489,1.471-13.187,7.062l-2.11,6.972L110.77,66.445z"/>
	<path clip-path="url(#SVGID_2_)" fill="none" stroke="#252525" stroke-width="3.3473" stroke-miterlimit="10" d="M110.77,66.445
		l-1.949,6.431c-1.691,5.594,1.47,11.494,7.063,13.193c5.583,1.69,11.492-1.472,13.188-7.062l2.112-6.971l13.612-45.104l1.949-6.431
		c1.69-5.593-1.468-11.495-7.063-13.193c-5.581-1.69-11.489,1.471-13.187,7.062l-2.11,6.972L110.77,66.445z"/>
	<path clip-path="url(#SVGID_2_)" fill="#66C192" d="M99.131,99.98c-1.775,5.878,1.537,12.083,7.417,13.866
		c5.88,1.778,12.09-1.551,13.866-7.425c1.784-5.881-1.543-12.084-7.419-13.867C107.116,90.778,100.908,94.101,99.131,99.98"/>
	<path clip-path="url(#SVGID_2_)" fill="none" stroke="#252525" stroke-width="3.3473" stroke-miterlimit="10" d="M99.131,99.98
		c-1.775,5.878,1.537,12.083,7.417,13.866c5.88,1.778,12.09-1.551,13.866-7.425c1.784-5.881-1.543-12.084-7.419-13.867
		C107.116,90.778,100.908,94.101,99.131,99.98z"/>
	<path clip-path="url(#SVGID_2_)" fill="#272626" d="M10.901,38.868c0.542,0.229,0.943,0.739,1.002,1.366
		c0.085,0.907-0.581,1.712-1.488,1.797l-7.608,0.718c-0.91,0.086-1.714-0.58-1.799-1.488c-0.086-0.906,0.58-1.711,1.488-1.797
		l7.61-0.719C10.386,38.718,10.658,38.763,10.901,38.868"/>
	<path clip-path="url(#SVGID_2_)" fill="#272626" d="M14.525,50.202c0.208,0.089,0.404,0.222,0.568,0.4
		c0.619,0.669,0.577,1.714-0.092,2.333l-4.948,4.572c-0.669,0.619-1.712,0.578-2.333-0.092c-0.618-0.669-0.576-1.713,0.093-2.332
		l4.946-4.571C13.253,50.055,13.945,49.958,14.525,50.202"/>
	<path clip-path="url(#SVGID_2_)" fill="#272626" d="M25.818,54.109c0.709,0.299,1.132,1.064,0.973,1.847l-1.307,6.46
		c-0.182,0.895-1.052,1.471-1.945,1.291s-1.472-1.051-1.291-1.945l1.309-6.462c0.181-0.894,1.053-1.47,1.946-1.288
		C25.612,54.033,25.719,54.066,25.818,54.109"/>
</g>
</svg>
