<?xml version="1.0" encoding="utf-8"?>
<!-- Generator: Adobe Illustrator 23.0.3, SVG Export Plug-In . SVG Version: 6.00 Build 0)  -->
<svg version="1.1" id="레이어_1" xmlns="http://www.w3.org/2000/svg" xmlns:xlink="http://www.w3.org/1999/xlink" x="0px"
	 y="0px" viewBox="0 0 179 26" style="enable-background:new 0 0 179 26;" xml:space="preserve" width="179" height="26">
<style type="text/css">
	.st0{fill:#333333;}
	.st1{fill:#FF6759;}
</style>
<g>
	<path class="st0" d="M19.69,2.22v1.8c0,0.74-0.6,1.33-1.33,1.33h-5.95v19.1c0,0.73-0.6,1.33-1.33,1.33H8.99
		c-0.73,0-1.33-0.6-1.33-1.33V5.35H1.33C0.6,5.35,0,4.75,0,4.02v-1.8c0-0.74,0.6-1.33,1.33-1.33h17.03
		C19.1,0.89,19.69,1.48,19.69,2.22z"/>
	<path class="st0" d="M41.24,24.45V9.35c0-0.74,0.6-1.33,1.33-1.33h2.04c0.74,0,1.33,0.6,1.33,1.33v15.1c0,0.74-0.6,1.33-1.33,1.33
		h-2.04C41.83,25.78,41.24,25.18,41.24,24.45z"/>
	<path class="st0" d="M41.24,3.75V1.94c0-0.95,0.77-1.72,1.72-1.72h1.26c0.95,0,1.72,0.77,1.72,1.72v1.81
		c0,0.95-0.77,1.72-1.72,1.72h-1.26C42.01,5.47,41.24,4.7,41.24,3.75z"/>
	<path class="st0" d="M65.11,15.48v8.97c0,0.73-0.6,1.33-1.33,1.33h-1.95c-0.73,0-1.33-0.6-1.33-1.33v-8.9
		c0-3.37-0.89-4.31-3.77-4.31c-2.87,0-3.77,0.94-3.77,4.31v8.9c0,0.73-0.6,1.33-1.33,1.33h-1.95c-0.73,0-1.33-0.6-1.33-1.33v-8.97
		c0-6.87,2.42-8.87,8.38-8.87C62.69,6.61,65.11,8.6,65.11,15.48z"/>
	<path class="st0" d="M30.46,6.61c-1.41,0-2.61,0.11-3.63,0.36V2.21c0-0.73-0.59-1.33-1.33-1.33h-1.95c-0.73,0-1.33,0.59-1.33,1.33
		v12.72c0,0.14,0,0.27,0,0.41l0,0v9.1c0,0.73,0.6,1.33,1.33,1.33h1.95c0.73,0,1.33-0.6,1.33-1.33v-9.32
		c0.05-3.12,0.84-3.89,3.63-3.89c2.87,0,3.77,0.94,3.77,4.31v8.9c0,0.73,0.6,1.33,1.33,1.33h1.95c0.73,0,1.33-0.6,1.33-1.33v-8.97
		C38.84,8.6,36.42,6.61,30.46,6.61z"/>
	<path class="st0" d="M83.15,25.78h-1.69c-1.11,0-1.97-0.31-2.47-0.94l-6.12-6.9l0,0.79v5.71c0,0.74-0.6,1.33-1.33,1.33h-1.95
		c-0.74,0-1.33-0.6-1.33-1.33V2.22c0-0.74,0.6-1.33,1.33-1.33h1.95c0.74,0,1.33,0.6,1.33,1.33v10.77l0,0.88l6.1-6.06
		c0.5-0.59,1.34-0.86,2.45-0.86h1.53c1.65,0,2.32,0.9,1.4,1.88l-7.03,6.87l7.28,8.18C85.43,24.92,84.76,25.78,83.15,25.78z"/>
	<path class="st0" d="M98.01,18.06l-8.54,0.33c0,0,0.35,0.65,0.37,0.7c0.91,1.64,3.03,2.49,5.28,2.49c1.24,0,2.73-0.23,4.38-0.6
		c1.3-0.29,1.99,0.02,1.99,1.47V23c-0.02,1.32-0.17,1.58-1.49,1.94c-2.07,0.55-4.02,0.83-5.82,0.83c-5.8,0-9.03-3.1-9.03-9.57
		c0-6.11,2.63-9.59,9.06-9.59c5.4,0,8.6,2.64,8.6,7.34c0,2.57-1.08,3.69-4.35,4.07C98.31,18.03,98.16,18.05,98.01,18.06z
		 M98.19,13.4c0-1.79-1.53-2.84-3.98-2.84c-2.66,0-4.51,0.91-4.8,4.09l7.46-0.29C97.98,14.24,98.19,14.04,98.19,13.4z"/>
	<path class="st1" d="M155.2,18.06l-8.54,0.33c0,0,0.35,0.65,0.37,0.7c0.91,1.64,3.03,2.49,5.28,2.49c1.24,0,2.73-0.23,4.38-0.6
		c1.3-0.29,1.99,0.02,1.99,1.47V23c-0.02,1.32-0.17,1.58-1.49,1.94c-2.07,0.55-4.02,0.83-5.82,0.83c-5.8,0-9.03-3.1-9.03-9.57
		c0-6.11,2.63-9.59,9.06-9.59c5.4,0,8.6,2.64,8.6,7.34c0,2.57-1.08,3.69-4.35,4.07C155.5,18.03,155.35,18.05,155.2,18.06z
		 M155.38,13.4c0-1.79-1.53-2.84-3.98-2.84c-2.66,0-4.51,0.91-4.8,4.09l7.46-0.29C155.17,14.24,155.38,14.04,155.38,13.4z"/>
	<path class="st1" d="M167.94,25.77c-0.63-0.01-1.05,0.05-2.51-0.32c-2.87-0.73-3.24-2.26-3.24-5.21V1.57
		c0-0.75,0.61-1.35,1.35-1.35h2.14c0.75,0,1.35,0.61,1.35,1.35v18.54c0,1.07,0.08,1.59,1.18,1.6c1.28,0.02,1.63,0.66,1.63,1.81v0.46
		C169.84,25.16,169.18,25.78,167.94,25.77z"/>
	<path class="st1" d="M177.09,25.77c-0.63-0.01-1.05,0.05-2.51-0.32c-2.87-0.73-3.24-1.93-3.24-4.88V1.57
		c0-0.75,0.61-1.35,1.35-1.35h2.14c0.75,0,1.35,0.61,1.35,1.35v18.54c0,1.07,0.08,1.59,1.18,1.6c1.28,0.02,1.63,0.66,1.63,1.81v0.46
		C179,25.16,178.34,25.78,177.09,25.77z"/>
	<path class="st0" d="M116.14,9.53c-2.94-0.32-4.64,0.15-5.88,0.76V7.94c0-0.74-0.6-1.33-1.33-1.33h-2.04
		c-0.74,0-1.33,0.6-1.33,1.33v6.18v1.05v9.27c0,0.74,0.6,1.33,1.33,1.33h2.04c0.74,0,1.33-0.6,1.33-1.33v-7.91
		c0-1.89,1.07-3.38,4.88-2.97c1.26,0.14,1.86,0.14,2.29-0.97l0.36-1.39C118.15,10.16,117.36,9.67,116.14,9.53z"/>
	<path class="st1" d="M140.33,19.04c0,5.29-3.17,6.74-10.6,6.74h-7.61c-0.74,0-1.33-0.6-1.33-1.33V2.22c0-0.74,0.6-1.33,1.33-1.33
		h7.07c6.99,0,10.24,1.05,10.24,5.95c0,2.74-0.74,4.89-2.94,5.92c0,0,0,0,0,0.01C139.47,13.76,140.33,15.71,140.33,19.04z
		 M129.84,10.92c3.49,0,4.77-0.75,4.77-3.03c0-2.07-1.26-2.8-4.77-2.8h-2.78c-1.34,0-1.57,0.61-1.57,1.59v4.23c0,0,0,0,0,0H129.84z
		 M135.62,18.58c0-2.43-1.26-3.18-4.75-3.18h-5.38c0,0,0,0,0,0v4.57c0,0.98,0.23,1.59,1.57,1.59h3.81
		C134.4,21.57,135.62,20.84,135.62,18.58z"/>
</g>
</svg>
