<?xml version="1.0" encoding="utf-8"?>
<!-- Generator: Adobe Illustrator 21.0.2, SVG Export Plug-In . SVG Version: 6.00 Build 0)  -->
<svg version="1.1" id="레이어_1" xmlns="http://www.w3.org/2000/svg" xmlns:xlink="http://www.w3.org/1999/xlink" x="0px"
	 y="0px" viewBox="0 0 20 20" style="enable-background:new 0 0 20 20;" width="20px" height="20px" xml:space="preserve">
<style type="text/css">
	.st0{fill:#FFFFFF;}
</style>
<g>
	<circle fill="#ed7260" class="st0" cx="10" cy="10" r="10"/>
	<path fill="#ed7260" d="M10,1.3c4.8,0,8.7,3.9,8.7,8.7s-3.9,8.7-8.7,8.7S1.3,14.8,1.3,10S5.2,1.3,10,1.3 M10,0C4.5,0,0,4.5,0,10s4.5,10,10,10
		s10-4.5,10-10S15.5,0,10,0L10,0z"/>
</g>
<g>
	<circle fill="#ed7260" cx="12.8" cy="6.9" r="1"/>
</g>
<g>
	<circle fill="#ed7260" cx="7.5" cy="6.9" r="1"/>
</g>
<path fill="#ed7260" d="M10,16.2c-3.4,0-6.2-2.8-6.2-6.2c0-0.4,0.3-0.7,0.7-0.7S5.2,9.6,5.2,10c0,2.7,2.2,4.8,4.8,4.8s4.8-2.2,4.8-4.8
	c0-0.4,0.3-0.7,0.7-0.7s0.7,0.3,0.7,0.7C16.2,13.4,13.4,16.2,10,16.2z"/>
</svg>
