<?xml version="1.0" encoding="utf-8"?>
<!-- Generator: Adobe Illustrator 21.0.2, SVG Export Plug-In . SVG Version: 6.00 Build 0)  -->
<svg version="1.1" id="레이어_1" xmlns="http://www.w3.org/2000/svg" xmlns:xlink="http://www.w3.org/1999/xlink" x="0px"
	 y="0px" viewBox="0 0 12 12" style="enable-background:new 0 0 12 12;" width="12px" height="12px" xml:space="preserve">
<style type="text/css">
	.st0{clip-path:url(#SVGID_2_);}
</style>
<g>
	<defs>
		<rect id="SVGID_1_" width="12" height="12"/>
	</defs>
	<clipPath id="SVGID_2_">
		<use xlink:href="#SVGID_1_"  style="overflow:visible;"/>
	</clipPath>
	<path class="st0" d="M11.4,12c-0.2,0-0.3-0.1-0.4-0.2L0.2,1c-0.2-0.2-0.2-0.6,0-0.9s0.6-0.2,0.9,0L11.8,11c0.2,0.2,0.2,0.6,0,0.9
		C11.7,11.9,11.6,12,11.4,12z"/>
	<path class="st0" d="M0.6,12c-0.2,0-0.3-0.1-0.4-0.2c-0.2-0.2-0.2-0.6,0-0.9L11,0.2c0.2-0.2,0.6-0.2,0.9,0s0.2,0.6,0,0.9L1,11.8
		C0.9,11.9,0.8,12,0.6,12z"/>
</g>
</svg>
