<?xml version="1.0" encoding="utf-8"?>
<!-- Generator: Adobe Illustrator 21.0.2, SVG Export Plug-In . SVG Version: 6.00 Build 0)  -->
<svg version="1.1" id="레이어_1" xmlns="http://www.w3.org/2000/svg" xmlns:xlink="http://www.w3.org/1999/xlink" x="0px"
	 y="0px" viewBox="0 0 17 17" style="enable-background:new 0 0 17 17;" width="17" height="17" xml:space="preserve">
<style type="text/css">
	.st0{fill:#FFFFFF;}
</style>
<g>
	<g>
		<path class="st0" d="M2.8,16.6v-6.1c0-3.1,2.6-5.7,5.7-5.7h0c3.1,0,5.7,2.6,5.7,5.7v6.1"/>
		<path d="M14.6,16.6h-1v-6.1c0-2.9-2.3-5.2-5.2-5.2c-2.9,0-5.2,2.3-5.2,5.2v6.1h-1v-6.1c0-3.4,2.8-6.2,6.2-6.2
			c3.4,0,6.2,2.8,6.2,6.2V16.6z"/>
	</g>
	<g>
		<circle cx="8.5" cy="10" r="1"/>
	</g>
	<g>
		<line class="st0" x1="8.5" y1="16.5" x2="8.5" y2="13.3"/>
		<path d="M8.5,17C8.2,17,8,16.8,8,16.5v-3.2c0-0.3,0.2-0.5,0.5-0.5S9,13,9,13.3v3.2C9,16.8,8.8,17,8.5,17z"/>
	</g>
	<g>
		<line class="st0" x1="0.7" y1="16.5" x2="16.3" y2="16.5"/>
		<path d="M16.3,17H0.7c-0.3,0-0.5-0.2-0.5-0.5S0.4,16,0.7,16h15.6c0.3,0,0.5,0.2,0.5,0.5S16.6,17,16.3,17z"/>
	</g>
</g>
<g>
	<line class="st0" x1="4.1" y1="3.7" x2="2.7" y2="2.3"/>
	<path d="M4.1,4.2c-0.1,0-0.3,0-0.4-0.1L2.4,2.7C2.2,2.5,2.2,2.1,2.4,2s0.5-0.2,0.7,0l1.4,1.4c0.2,0.2,0.2,0.5,0,0.7
		C4.4,4.2,4.3,4.2,4.1,4.2z"/>
</g>
<g>
	<line class="st0" x1="8.5" y1="2.5" x2="8.5" y2="0.5"/>
	<path d="M8.5,3C8.2,3,8,2.8,8,2.5v-2C8,0.2,8.2,0,8.5,0S9,0.2,9,0.5v2C9,2.8,8.8,3,8.5,3z"/>
</g>
<g>
	<line class="st0" x1="12.9" y1="3.7" x2="14.3" y2="2.3"/>
	<path d="M12.9,4.2c-0.1,0-0.3,0-0.4-0.1c-0.2-0.2-0.2-0.5,0-0.7l1.4-1.4c0.2-0.2,0.5-0.2,0.7,0s0.2,0.5,0,0.7L13.2,4
		C13.1,4.1,13,4.2,12.9,4.2z"/>
</g>
</svg>
