<?xml version="1.0" encoding="utf-8"?>
<!-- Generator: Adobe Illustrator 21.0.2, SVG Export Plug-In . SVG Version: 6.00 Build 0)  -->
<svg version="1.1" id="레이어_1" xmlns="http://www.w3.org/2000/svg" xmlns:xlink="http://www.w3.org/1999/xlink" x="0px"
	 y="0px" viewBox="0 0 10 14" style="enable-background:new 0 0 10 14;" xml:space="preserve">
<path d="M8.6,14H1.4C0.6,14,0,13.4,0,12.6V5.4C0,4.6,0.6,4,1.4,4h7.2C9.4,4,10,4.6,10,5.4v7.2C10,13.4,9.4,14,8.6,14z M1.4,5
	C1.2,5,1,5.2,1,5.4v7.2C1,12.8,1.2,13,1.4,13h7.2C8.8,13,9,12.8,9,12.6V5.4C9,5.2,8.8,5,8.6,5H1.4z"/>
<path d="M5,10.5L5,10.5c-0.3,0-0.5-0.2-0.5-0.5V8c0-0.3,0.2-0.5,0.5-0.5h0c0.3,0,0.5,0.2,0.5,0.5v2C5.5,10.3,5.3,10.5,5,10.5z"/>
<circle cx="5" cy="8" r="1"/>
<path d="M8,5H2V3c0-1.7,1.3-3,3-3s3,1.3,3,3V5z M3,4h4V3c0-1.1-0.9-2-2-2C3.9,1,3,1.9,3,3V4z"/>
</svg>
