<?xml version="1.0" encoding="utf-8"?>
<!-- Generator: Adobe Illustrator 21.0.2, SVG Export Plug-In . SVG Version: 6.00 Build 0)  -->
<svg version="1.1" id="레이어_1" xmlns="http://www.w3.org/2000/svg" xmlns:xlink="http://www.w3.org/1999/xlink" x="0px"
	 y="0px" viewBox="0 0 18 15" style="enable-background:new 0 0 18 15;" width="18px" height="15px" xml:space="preserve">
<path d="M8.9,15L1.3,6.7c-0.7-0.8-1.1-1.8-1-2.9S0.8,1.7,1.6,1c1.6-1.5,4.2-1.4,5.7,0.3l1.8,2l1.8-2c1.5-1.6,4-1.8,5.7-0.3
	c1.6,1.5,1.8,4,0.3,5.7L8.9,15z M4.2,0.9c-0.7,0-1.5,0.3-2.1,0.8c-0.6,0.6-1,1.3-1,2.2c0,0.8,0.2,1.6,0.8,2.3l7,7.6l7.2-7.6
	c1.2-1.3,1.1-3.3-0.2-4.4c-1.3-1.2-3.3-1.1-4.4,0.2L9,4.6L6.6,1.9C5.9,1.2,5.1,0.9,4.2,0.9z"/>
</svg>
