<?xml version="1.0" encoding="utf-8"?>
<!-- Generator: Adobe Illustrator 16.0.0, SVG Export Plug-In . SVG Version: 6.00 Build 0)  -->
<!DOCTYPE svg PUBLIC "-//W3C//DTD SVG 1.1//EN" "http://www.w3.org/Graphics/SVG/1.1/DTD/svg11.dtd">
<svg version="1.1" id="Layer_1" xmlns="http://www.w3.org/2000/svg" xmlns:xlink="http://www.w3.org/1999/xlink" x="0px" y="0px"
	 width="120px" height="120px" viewBox="0 0 120 120" enable-background="new 0 0 120 120" xml:space="preserve">
<path fill="#ff6858" d="M73.992,60.15l28.746-28.747c3.906-3.905,3.906-10.237,0-14.142c-3.904-3.905-10.236-3.905-14.142,0
	L59.85,46.008L31.456,17.614c-3.917-3.917-10.269-3.917-14.186,0c-3.917,3.917-3.917,10.269,0,14.186l28.394,28.394L17.886,87.972
	c-3.905,3.905-3.905,10.237,0,14.142c3.905,3.906,10.237,3.906,14.142,0l27.778-27.777L88.2,102.729
	c3.917,3.917,10.269,3.917,14.187,0c3.916-3.917,3.916-10.269,0-14.186L73.992,60.15z"/>
</svg>
