<?xml version="1.0" encoding="utf-8"?>
<!-- Generator: Adobe Illustrator 24.1.3, SVG Export Plug-In . SVG Version: 6.00 Build 0)  -->
<svg version="1.1" id="Layer_1" xmlns="http://www.w3.org/2000/svg" xmlns:xlink="http://www.w3.org/1999/xlink" x="0px" y="0px"
	 viewBox="0 0 175 210" style="enable-background:new 0 0 175 210;" xml:space="preserve">
<style type="text/css">
	.st0{fill:#1B9F97;}
</style>
<g>
	<g>
		<path class="st0" d="M76.69,210c-7.23,0-14.04-3.85-17.77-10.04c-1.67-2.61-34.32-48.14-55.85-78.09
			c-0.03-0.04-0.05-0.07-0.08-0.11c-3.92-5.72-4-13.18-0.2-18.98c0,0,0,0,0,0c3.11-4.75,8.37-7.64,14.05-7.71
			c5.64-0.07,10.95,2.64,14.19,7.27l44.09,59.93l68.82-151.58c2.48-6.1,8.33-10.04,14.93-10.04c5.34,0,10.32,2.64,13.33,7.05
			c3.01,4.42,3.63,10.02,1.67,14.99c-0.03,0.08-0.07,0.17-0.1,0.25c-26.41,58.99-76.66,171.3-77.84,174.08
			C92.8,204.88,85.23,210,76.69,210z"/>
	</g>
</g>
</svg>
