<?xml version="1.0" encoding="utf-8"?>
<!-- Generator: Adobe Illustrator 24.0.1, SVG Export Plug-In . SVG Version: 6.00 Build 0)  -->
<svg version="1.1" id="레이어_1" xmlns="http://www.w3.org/2000/svg" xmlns:xlink="http://www.w3.org/1999/xlink" x="0px"
	 y="0px" viewBox="0 0 36 36" style="enable-background:new 0 0 36 36;" xml:space="preserve">
<style type="text/css">
	.st0{fill:#FFFFFF;}
	.st1{opacity:0.3;}
</style>
<path class="st0" d="M0,0v36h36V0H0z M34.24,15.68L34.24,15.68l-7.41,6.64l2.07,10.88c0.11,0.59-0.13,1.17-0.62,1.51
	c-0.26,0.18-0.55,0.27-0.85,0.27c-0.27,0-0.54-0.07-0.78-0.22L18,29.49l-8.63,5.26c-0.51,0.31-1.14,0.29-1.63-0.05
	c-0.49-0.34-0.73-0.92-0.62-1.51L9.19,22.3l-7.42-6.63c-0.44-0.4-0.6-0.99-0.43-1.56s0.64-0.97,1.22-1.05l9.39-1.33l4.7-9.62
	c0.26-0.52,0.77-0.83,1.35-0.83c0,0,0,0,0,0c0.58,0,1.09,0.32,1.35,0.84l4.7,9.62l9.39,1.33c0.58,0.08,1.05,0.49,1.22,1.05
	C34.84,14.69,34.67,15.29,34.24,15.68z"/>
<path class="st1" d="M27.42,34.99c-0.27,0-0.54-0.07-0.78-0.22L18,29.49l-8.63,5.26c-0.51,0.31-1.14,0.29-1.63-0.05
	c-0.49-0.34-0.73-0.92-0.62-1.51L9.19,22.3l-7.42-6.63c-0.44-0.4-0.6-0.99-0.43-1.56s0.64-0.97,1.22-1.05l9.39-1.33l4.7-9.62
	c0.26-0.52,0.77-0.83,1.35-0.83c0,0,0,0,0,0c0.58,0,1.09,0.32,1.35,0.84l4.7,9.62l9.39,1.33c0.58,0.08,1.05,0.49,1.22,1.05
	c0.17,0.56,0.01,1.16-0.43,1.56l0,0l-7.41,6.64l2.07,10.88c0.11,0.59-0.13,1.17-0.62,1.51C28.01,34.9,27.72,34.99,27.42,34.99z
	 M18,28.31l9.16,5.6c0.25,0.16,0.48,0.03,0.54-0.02c0.06-0.04,0.26-0.21,0.21-0.51l-2.17-11.44l7.83-7.02
	c0.22-0.2,0.17-0.45,0.14-0.52c-0.02-0.07-0.12-0.31-0.41-0.35l-9.91-1.41l-4.94-10.1C18.36,2.38,18.19,2.28,18,2.28c0,0,0,0,0,0
	c-0.19,0-0.36,0.1-0.45,0.28l-4.93,10.09L2.7,14.06c-0.29,0.04-0.39,0.28-0.41,0.35c-0.02,0.07-0.08,0.32,0.14,0.52l7.84,7.01
	L8.1,33.37c-0.06,0.29,0.14,0.46,0.21,0.5c0.06,0.04,0.29,0.17,0.54,0.02L18,28.31z"/>
</svg>
