<?xml version="1.0" encoding="utf-8"?>
<!-- Generator: Adobe Illustrator 23.0.3, SVG Export Plug-In . SVG Version: 6.00 Build 0)  -->
<svg version="1.1" id="레이어_1" xmlns="http://www.w3.org/2000/svg" xmlns:xlink="http://www.w3.org/1999/xlink" x="0px"
	 y="0px" viewBox="0 0 232 73" style="enable-background:new 0 0 232 73;" xml:space="preserve">
<style type="text/css">
	.st0{fill:#EF4E23;}
	.st1{fill:#6D6358;}
</style>
<g>
	<g>
		<g>
			<path class="st0" d="M153.62,12.07c1.23-1.34,3-4.15,1.09-7.09c-1.77-2.72-4.44-2.83-6.42-2.2c-6.82,2.56-12.01,2.72-16.13,1.43
				c-2.39-0.75-4.68-2.25-5.98-3.13c-0.1-0.07-0.52-0.34-0.68-0.42c-0.78-0.39-2.14-0.86-3.44-0.57c-0.72,0.17-2.26,0.73-3.12,2.83
				c-0.55,1.34,0.13,3.52,0.59,4.24c4.87,7.68,13.14,8.2,17.47,8.72c0.06,0.01,0.17,0.07,0.21,0.16c0.05,0.08,0.04,0.19,0.02,0.26
				c-0.74,2.1-1.77,5.67-2.3,9.5c4.6,2.04,7.88,4.99,9.78,7.25c2.08,2.48,2.49,5.93,0.62,7.81c1.59-1.6,1.55-3.7,1.54-4.79
				c0,0,0-0.01,0-0.02c0-0.37-0.11-1.71-0.14-2.03c-0.22-2.13-0.35-4.92-0.06-7.18C147.31,21.63,148.99,17.05,153.62,12.07z"/>
		</g>
		<g>
			<path class="st1" d="M144.71,32.62c-2.93-3.49-9.13-8.6-18.39-9.51c-0.1-0.01-0.24-0.08-0.31-0.22
				c-0.08-0.16-0.05-0.34-0.02-0.45c0.37-1.16,1.36-4.68,1.62-9c-2.94-1.2-5.87-3.22-8.09-6.72c-0.46-0.72-1.13-2.89-0.59-4.24
				c-0.49,1.16-0.34,2.56-0.16,3.49c0,0,0,0.01,0,0.02c0.01,0.02,0.01,0.05,0.02,0.07c0,0.01,0,0.01,0,0.02
				c0.23,1.06,0.88,4.8,0.78,7.67c-0.24,4.18-2.27,8.37-5.26,11.88c-0.5,0.58-1.66,2.42-0.74,4.37c1.09,2.32,3.55,2,4.34,1.9
				c0.63-0.08,1.29-0.16,1.89-0.18c3.46-0.15,6.9,0.66,10.34,2.72c2.57,1.62,5.24,3.96,6.48,5.22c0.12,0.12,0.81,0.75,1,0.88
				c1.24,0.89,2.74,1.35,4.06,1.35c1.54,0,2.85-0.66,3.64-1.46C147.2,38.54,146.79,35.1,144.71,32.62z"/>
		</g>
	</g>
	<g>
		<g>
			<path class="st0" d="M153.62,12.07c1.23-1.34,3-4.15,1.09-7.09c-1.77-2.72-4.44-2.83-6.42-2.2c-6.82,2.56-12.01,2.72-16.13,1.43
				c-2.39-0.75-4.68-2.25-5.98-3.13c-0.1-0.07-0.52-0.34-0.68-0.42c-0.78-0.39-2.14-0.86-3.44-0.57c-0.72,0.17-2.26,0.73-3.12,2.83
				c-0.55,1.34,0.13,3.52,0.59,4.24c4.87,7.68,13.14,8.2,17.47,8.72c0.06,0.01,0.17,0.07,0.21,0.16c0.05,0.08,0.04,0.19,0.02,0.26
				c-0.74,2.1-1.77,5.67-2.3,9.5c4.6,2.04,7.88,4.99,9.78,7.25c2.08,2.48,2.49,5.93,0.62,7.81c1.59-1.6,1.55-3.7,1.54-4.79
				c0,0,0-0.01,0-0.02c0-0.37-0.11-1.71-0.14-2.03c-0.22-2.13-0.35-4.92-0.06-7.18C147.31,21.63,148.99,17.05,153.62,12.07z"/>
		</g>
		<g>
			<path class="st1" d="M144.71,32.62c-2.93-3.49-9.13-8.6-18.39-9.51c-0.1-0.01-0.24-0.08-0.31-0.22
				c-0.08-0.16-0.05-0.34-0.02-0.45c0.37-1.16,1.36-4.68,1.62-9c-2.94-1.2-5.87-3.22-8.09-6.72c-0.46-0.72-1.13-2.89-0.59-4.24
				c-0.49,1.16-0.34,2.56-0.16,3.49c0,0,0,0.01,0,0.02c0.01,0.02,0.01,0.05,0.02,0.07c0,0.01,0,0.01,0,0.02
				c0.23,1.06,0.88,4.8,0.78,7.67c-0.24,4.18-2.27,8.37-5.26,11.88c-0.5,0.58-1.66,2.42-0.74,4.37c1.09,2.32,3.55,2,4.34,1.9
				c0.63-0.08,1.29-0.16,1.89-0.18c3.46-0.15,6.9,0.66,10.34,2.72c2.57,1.62,5.24,3.96,6.48,5.22c0.12,0.12,0.81,0.75,1,0.88
				c1.24,0.89,2.74,1.35,4.06,1.35c1.54,0,2.85-0.66,3.64-1.46C147.2,38.54,146.79,35.1,144.71,32.62z"/>
		</g>
	</g>
	<g>
		<g>
			<path class="st1" d="M203.86,48.77h-3.55v5.43c-0.97-0.21-2.31-0.34-3.5-0.27c-3.84,0.24-7.06,3.55-7.06,9.21
				c0,5.41,3.19,8.68,7.61,8.85c2.85,0.11,5.19-0.57,6.54-1.08c0.5-0.19,1.23-0.52,1.23-1.49v-19.1
				C205.14,48.98,204.12,48.8,203.86,48.77z M200.3,68.64c-0.56,0.16-1.26,0.33-2.3,0.17c-2.23-0.49-3.37-1.85-3.37-5.68
				c0-4.14,0.94-5.43,3.03-6.03c0.86-0.25,1.68-0.15,2.64,0.17V68.64z"/>
			<g>
				<path class="st1" d="M211.22,46.58c1.53,0,2.76,1.26,2.76,2.82s-1.26,2.83-2.83,2.83c-1.53,0-2.79-1.26-2.79-2.83
					S209.65,46.58,211.22,46.58"/>
				<path class="st1" d="M213.58,54.15h-3.55c-0.26,0.02-1.28,0.2-1.28,1.55v15.97h3.56c0.27-0.03,1.26-0.21,1.27-1.55V54.15z"/>
			</g>
			<path class="st1" d="M226.9,68.49c0,0-1.19,0.42-2.98,0.42c-1.35,0-2.34-1.05-2.34-2.38c0-2.03,1.44-2.81,5.12-2.81h0.2V68.49z
				 M223.19,53.95c-1.15,0.06-2.26,0.25-3.31,0.66c-1.06,0.41-1.69,0.71-1.9,0.89l0.03,1.32c0.03,1.26,1.12,1.21,1.36,1.13
				c0.22-0.09,0.46-0.18,0.73-0.27c1-0.34,2.04-0.52,3.1-0.54c1.5-0.04,3.72,0.43,3.72,2.73v1.02c-0.52-0.04-0.8-0.05-1.17-0.05
				c-6.02,0-9.08,1.86-9.08,5.85c0,3.39,2.6,5.32,6.81,5.32c3.69,0,5.88-0.66,7.19-1.23l0.08-0.04c0.46-0.21,0.98-0.57,0.98-1.38
				l0-0.05v-9.51C231.73,55.32,227.79,53.72,223.19,53.95z"/>
			<path class="st1" d="M161.98,53.35c-2.4,0-4.1,0.42-5.29,0.93c-1.07-0.62-2.45-0.95-4.09-0.95c-4.15,0-6.15,0.92-7.27,1.55
				c-0.15,0.09-0.28,0.16-0.28,0.16c-0.07,0.04-0.13,0.14-0.13,0.23v16.4h3.5c0.27-0.03,1.26-0.21,1.27-1.54V57.1
				c0,0,0.91-0.43,2.5-0.43c1.2,0,2.09,0.92,2.09,2.28v12.72h3.56c0.27-0.03,1.26-0.22,1.27-1.56V57.58
				c0.34-0.28,1.22-0.89,2.46-0.89c1.2,0,2.13,0.92,2.13,2.28v12.71h3.56c0.27-0.03,1.26-0.21,1.27-1.54V58.8
				C168.53,55.33,166,53.35,161.98,53.35z"/>
			<path class="st1" d="M185.63,68.11l0.02-0.02c-0.61,0.23-1.21,0.42-1.8,0.57c-0.98,0.23-2.41,0.35-3.34,0.35
				c-1.41,0-2.55-0.38-3.42-1.13c-0.88-0.76-1.31-1.73-1.31-3.47h10.62c0.32-0.04,1.16-0.27,1.21-1.44v-0.75
				c0-2.51-0.53-4.55-1.93-6.12c-1.4-1.56-3.6-2.35-6.24-2.35c-2.77,0-4.89,0.83-6.35,2.5c-1.46,1.66-2.19,3.7-2.19,6.1v1.24
				c0,2.75,0.8,4.83,2.39,6.26c1.6,1.43,3.74,2.14,6.42,2.14c1.41,0,3.13-0.13,4.2-0.38c1.07-0.25,2.05-0.63,2.94-1.12v-1.37
				C186.8,67.91,185.63,68.11,185.63,68.11z M176.97,57.66c0.72-0.73,1.54-1.1,2.46-1.1c1.05,0,1.9,0.37,2.55,1.11
				c0.65,0.74,1.03,1.97,1.13,3.69h-7.31C175.86,59.62,176.25,58.38,176.97,57.66z"/>
		</g>
		<g>
			<path class="st0" d="M72.97,58.47c-0.74-0.38-0.74-0.38-1.23-0.58c-0.44-0.18-0.75-0.26-1.44-0.26c-0.7,0-1.04,0.15-1.6,0.53
				c-0.49,0.33-0.69,0.55-1.08,1.02v10.99c0,1.33-0.99,1.52-1.27,1.55h-3.45V55.06c0-1.35,0.83-1.52,1.28-1.52h3.44v1.86
				c0.74-0.57,1.73-1.54,4.3-1.57c1.52-0.02,2.5,0.64,2.91,1.02c0,0,0.05,2.11,0,2.53C74.78,57.84,74.64,59.13,72.97,58.47z"/>
			<path class="st0" d="M51.85,58.18c0.86-1.06,2.09-1.59,3.7-1.59c0.85,0,1.63,0.14,2.36,0.4c0.18,0.07,0.35,0.13,0.52,0.21
				c0.13,0.03,1.2,0.24,1.22-0.96v-1.46c-0.33-0.32-0.94-0.62-1.83-0.9c-0.89-0.29-1.89-0.43-2.99-0.43c-2.79,0-5.01,0.8-6.65,2.39
				c-1.63,1.6-2.46,3.72-2.46,6.37v0.74c0,2.65,0.83,4.77,2.46,6.37c1.64,1.6,3.86,2.4,6.65,2.4c1.1,0,2.1-0.14,2.99-0.43
				c0.89-0.28,1.5-0.58,1.83-0.91v-1.45c-0.02-1.2-1.09-0.99-1.22-0.96c-0.16,0.07-0.34,0.14-0.52,0.21
				c-0.72,0.27-1.51,0.4-2.36,0.4c-1.61,0-2.84-0.52-3.7-1.58c-0.85-1.06-1.28-2.39-1.28-4.22V62.4
				C50.57,60.56,51,59.23,51.85,58.18"/>
			<path class="st0" d="M24.61,70.75c0,0.09,0.06,0.14,0.14,0.16l0.05,0.02c0.83,0.29,1.86,0.53,3.09,0.72
				c1.32,0.21,2.41,0.31,4.34,0.31c3.36,0,5.99-0.62,7.88-1.88c1.89-1.25,2.83-3.18,2.83-5.81c0-1.71-0.51-3.18-1.54-4.42
				c-1.01-1.24-3.2-2.27-5.61-3.07c-2.59-0.88-4.14-1.53-4.68-1.98c-0.52-0.44-0.8-1.11-0.8-1.98c0-0.69,0.5-1.26,1.21-1.72
				c0.71-0.46,1.86-0.69,3.47-0.69c1.13,0,2.21,0.09,3.2,0.26c0.31,0.05,0.62,0.11,0.92,0.17l-0.01-0.02c0,0,0.04,0.02,0.1,0.03
				c0.12,0.02,0.25,0.04,0.37,0.07c0.61,0.07,1.63-0.02,1.65-1.35v-1.96c0-0.09-0.06-0.13-0.14-0.16c0,0-0.03-0.01-0.14-0.04
				c-0.51-0.16-1.25-0.33-2.25-0.51c-1.2-0.23-2.55-0.34-4.05-0.34c-3.1,0-5.52,0.65-7.27,1.96c-1.75,1.31-2.76,2.91-2.76,4.81
				c0,1.98,0.54,3.55,1.63,4.7c1.08,1.15,3.09,2.1,5.07,2.84c2.49,0.92,4.01,1.65,4.54,2.21c0.53,0.56,0.8,1.19,0.8,1.91
				c0,1.12-0.37,1.93-1.11,2.4c-0.73,0.49-2.09,0.73-4.05,0.73c-1.39,0-2.29-0.16-3.72-0.48c-0.39-0.09-0.75-0.17-1.07-0.26
				c0,0-2.08-0.7-2.1,1.31V70.75z"/>
			<g>
				<path class="st0" d="M2.86,46.56c1.54,0,2.76,1.26,2.76,2.83c0,1.57-1.26,2.83-2.83,2.83C1.26,52.22,0,50.96,0,49.39
					C0,47.82,1.29,46.56,2.86,46.56"/>
				<path class="st0" d="M5.23,54.13H1.67c-0.26,0.02-1.28,0.2-1.28,1.55v16h3.57c0.27-0.03,1.26-0.22,1.27-1.55V54.13z"/>
			</g>
			<path class="st0" d="M9.48,58.21v1.82c0.02,0.26,0.2,1.28,1.55,1.28h9.87v-1.83c-0.03-0.27-0.22-1.26-1.55-1.27H9.48z"/>
			<path class="st0" d="M106.21,68.16c0,0-1.2,0.42-2.99,0.42c-1.35,0-2.34-1.05-2.34-2.38c0-2.03,1.44-2.82,5.14-2.82h0.2V68.16z
				 M102.49,53.6c-1.16,0.06-2.27,0.25-3.32,0.66c-1.06,0.41-1.69,0.71-1.91,0.89l0.03,1.33c0.03,1.26,1.12,1.21,1.36,1.14
				c0.22-0.09,0.46-0.18,0.73-0.27c1.01-0.34,2.04-0.52,3.11-0.54c1.5-0.04,3.73,0.43,3.73,2.73v1.02c-0.52-0.03-0.8-0.05-1.17-0.05
				c-6.04,0-9.11,1.86-9.11,5.86c0,3.4,2.6,5.33,6.82,5.33c3.71,0,5.9-0.66,7.22-1.23l0.08-0.04c0.46-0.21,0.98-0.57,0.98-1.39
				l0-0.05v-9.52C111.05,54.97,107.1,53.37,102.49,53.6"/>
			<path class="st0" d="M131.25,53.34c-2.4,0-4.11,0.42-5.3,0.94c-1.07-0.62-2.45-0.96-4.09-0.96c-4.16,0-6.16,0.93-7.28,1.56
				c-0.15,0.08-0.29,0.16-0.29,0.16c-0.07,0.04-0.13,0.14-0.13,0.23v16.42h3.51c0.28-0.02,1.27-0.21,1.27-1.54V57.1
				c0,0,0.91-0.43,2.51-0.43c1.2,0,2.09,0.92,2.09,2.28v12.74h3.57c0.27-0.03,1.26-0.22,1.27-1.56V57.57
				c0.33-0.28,1.22-0.89,2.46-0.89c1.2,0,2.13,0.92,2.13,2.28v12.72h3.57c0.27-0.03,1.27-0.21,1.27-1.54V58.79
				C137.81,55.32,135.28,53.34,131.25,53.34"/>
			<path class="st0" d="M91.68,67.87l0.02-0.02c-0.61,0.23-1.21,0.42-1.8,0.57c-0.98,0.23-2.42,0.35-3.34,0.35
				c-1.41,0-2.55-0.38-3.43-1.13c-0.88-0.76-1.32-1.74-1.32-3.48h10.64c0.32-0.05,1.17-0.28,1.21-1.44v-0.75
				c0-2.52-0.53-4.56-1.94-6.12c-1.4-1.56-3.6-2.35-6.25-2.35c-2.78,0-4.9,0.83-6.36,2.5c-1.46,1.67-2.19,3.7-2.19,6.11v1.24
				c0,2.75,0.8,4.84,2.39,6.27c1.6,1.43,3.75,2.14,6.43,2.14c1.41,0,3.13-0.12,4.21-0.38c1.07-0.25,2.06-0.63,2.95-1.12v-1.37
				C92.86,67.67,91.68,67.87,91.68,67.87 M83.02,57.4c0.72-0.73,1.55-1.1,2.47-1.1c1.05,0,1.9,0.37,2.55,1.11
				c0.65,0.74,1.03,1.97,1.13,3.69h-7.32C81.9,59.37,82.3,58.13,83.02,57.4"/>
		</g>
	</g>
</g>
</svg>
