<?xml version="1.0" encoding="utf-8"?>
<!-- Generator: Adobe Illustrator 24.0.1, SVG Export Plug-In . SVG Version: 6.00 Build 0)  -->
<svg version="1.1" id="레이어_1" xmlns="http://www.w3.org/2000/svg" xmlns:xlink="http://www.w3.org/1999/xlink" x="0px"
	 y="0px" viewBox="0 0 406 59" style="enable-background:new 0 0 406 59;" xml:space="preserve">
<style type="text/css">
	.st0{fill:#333333;}
	.st1{fill:#FF6759;}
</style>
<path class="st0" d="M44.66,5.04v4.09c0,1.67-1.35,3.02-3.02,3.02h-13.5v43.32c0,1.67-1.35,3.02-3.02,3.02H20.4
	c-1.66,0-3.01-1.35-3.01-3.01V12.15H3.02C1.35,12.15,0,10.8,0,9.13V5.05c0-1.67,1.35-3.02,3.02-3.02h38.62
	C43.31,2.02,44.66,3.38,44.66,5.04z"/>
<path class="st0" d="M93.53,55.47V21.23c0-1.67,1.35-3.02,3.02-3.02h4.64c1.67,0,3.02,1.35,3.02,3.02v34.24
	c0,1.67-1.35,3.02-3.02,3.02h-4.64C94.88,58.49,93.53,57.13,93.53,55.47z"/>
<path class="st0" d="M93.53,8.52v-4.1c0-2.16,1.75-3.9,3.9-3.9h2.87c2.16,0,3.9,1.75,3.9,3.9v4.1c0,2.16-1.75,3.9-3.9,3.9h-2.87
	C95.28,12.42,93.53,10.68,93.53,8.52z"/>
<path class="st0" d="M147.68,35.12v20.35c0,1.67-1.35,3.02-3.02,3.02h-4.42c-1.67,0-3.02-1.35-3.02-3.02V35.29
	c0-7.64-2.03-9.77-8.54-9.77c-6.51,0-8.54,2.13-8.54,9.77v20.18c0,1.67-1.35,3.02-3.02,3.02h-4.42c-1.67,0-3.02-1.35-3.02-3.02
	V35.12c0-15.59,5.49-20.11,19-20.11C142.19,15.01,147.68,19.53,147.68,35.12z"/>
<path class="st0" d="M69.1,15.01c-3.2,0-5.93,0.24-8.23,0.81V5.04c0-1.66-1.35-3.01-3.01-3.01h-4.43c-1.66,0-3.01,1.35-3.01,3.01
	v28.85c0,0.31-0.01,0.62-0.01,0.94l0.01,0v20.65c0,1.67,1.35,3.02,3.02,3.02h4.43c1.67,0,3.02-1.35,3.02-3.02V34.34
	c0.1-7.08,1.91-8.82,8.23-8.82c6.52,0,8.54,2.13,8.54,9.77v20.18c0,1.67,1.35,3.02,3.02,3.02h4.42c1.67,0,3.02-1.35,3.02-3.02V35.12
	C88.1,19.53,82.6,15.01,69.1,15.01z"/>
<path class="st0" d="M188.59,58.49h-3.82c-2.52,0-4.47-0.7-5.6-2.13l-13.89-15.65l0,1.8v12.96c0,1.67-1.35,3.02-3.02,3.02h-4.42
	c-1.67,0-3.02-1.35-3.02-3.02V5.04c0-1.67,1.35-3.02,3.02-3.02h4.42c1.67,0,3.02,1.35,3.02,3.02v24.43l0,2l13.84-13.73
	c1.13-1.35,3.04-1.95,5.56-1.95h3.47c3.74,0,5.26,2.04,3.17,4.26l-15.94,15.59l16.51,18.55C193.76,56.53,192.24,58.49,188.59,58.49z
	"/>
<path class="st0" d="M222.29,40.97l-19.38,0.75c0,0,0.79,1.48,0.85,1.59c2.07,3.72,6.87,5.64,11.97,5.64c2.82,0,6.2-0.52,9.95-1.36
	c2.95-0.66,4.52,0.04,4.52,3.33v1.28c-0.04,3-0.4,3.58-3.39,4.39c-4.69,1.24-9.12,1.88-13.2,1.88c-13.16,0-20.47-7.03-20.47-21.7
	c0-13.86,5.96-21.74,20.56-21.74c12.25,0,19.5,5.99,19.5,16.65c0,5.84-2.45,8.37-9.86,9.24C222.99,40.92,222.64,40.95,222.29,40.97z
	 M222.72,30.4c0-4.05-3.47-6.44-9.03-6.44c-6.04,0-10.23,2.07-10.88,9.28l16.92-0.67C222.24,32.32,222.72,31.85,222.72,30.4z"/>
<path class="st1" d="M352.01,40.97l-19.38,0.75c0,0,0.79,1.48,0.85,1.59c2.07,3.72,6.87,5.64,11.97,5.64c2.82,0,6.2-0.52,9.95-1.36
	c2.95-0.66,4.52,0.04,4.52,3.33v1.28c-0.04,3-0.4,3.58-3.39,4.39c-4.69,1.24-9.12,1.88-13.2,1.88c-13.16,0-20.47-7.03-20.47-21.7
	c0-13.86,5.96-21.74,20.56-21.74c12.25,0,19.5,5.99,19.5,16.65c0,5.84-2.45,8.37-9.86,9.24C352.7,40.92,352.35,40.95,352.01,40.97z
	 M352.44,30.4c0-4.05-3.47-6.44-9.03-6.44c-6.04,0-10.23,2.07-10.88,9.28l16.92-0.67C351.96,32.32,352.44,31.85,352.44,30.4z"/>
<path class="st1" d="M380.9,58.45c-1.43-0.02-2.39,0.12-5.7-0.73c-6.5-1.66-7.34-5.12-7.34-11.82V3.58c0-1.69,1.37-3.07,3.07-3.07
	h4.85c1.69,0,3.07,1.37,3.07,3.07v42.06c0,2.42,0.18,3.6,2.67,3.63c2.91,0.04,3.71,1.5,3.71,4.11v1.05
	C385.23,57.09,383.73,58.49,380.9,58.45z"/>
<path class="st1" d="M401.67,58.45c-1.43-0.02-2.39,0.12-5.7-0.73c-6.5-1.66-7.34-4.37-7.34-11.07V3.58c0-1.69,1.37-3.07,3.07-3.07
	h4.85c1.69,0,3.07,1.37,3.07,3.07v42.06c0,2.42,0.18,3.6,2.67,3.63c2.91,0.04,3.71,1.5,3.71,4.11v1.05
	C406,57.09,404.5,58.49,401.67,58.45z"/>
<path class="st0" d="M263.42,21.64c-6.68-0.74-10.52,0.35-13.33,1.73v-5.34c0-1.67-1.35-3.02-3.02-3.02h-4.64
	c-1.67,0-3.02,1.35-3.02,3.02v14.02v2.38v21.03c0,1.67,1.35,3.02,3.02,3.02h4.64c1.67,0,3.02-1.35,3.02-3.02V37.53
	c0-4.3,2.42-7.67,11.08-6.74c2.85,0.31,4.21,0.31,5.2-2.2l0.82-3.16C267.99,23.05,266.18,21.94,263.42,21.64z"/>
<path class="st1" d="M318.29,43.2c0,11.99-7.2,15.29-24.05,15.29h-17.25c-1.67,0-3.02-1.35-3.02-3.02V5.05
	c0-1.67,1.35-3.02,3.02-3.02h16.04c15.85,0,23.22,2.38,23.22,13.49c0,6.2-1.67,11.08-6.66,13.43c-0.01,0-0.01,0.01,0,0.01
	C316.35,31.22,318.29,35.65,318.29,43.2z M294.5,24.78c7.9,0,10.81-1.69,10.81-6.86c0-4.69-2.87-6.34-10.81-6.34h-6.3
	c-3.04,0-3.56,1.39-3.56,3.6v9.59c0,0,0,0.01,0.01,0.01H294.5z M307.61,42.16c0-5.52-2.87-7.21-10.77-7.21h-12.2
	c0,0-0.01,0-0.01,0.01v10.37c0,2.22,0.52,3.6,3.56,3.6h8.64C304.83,48.93,307.61,47.28,307.61,42.16z"/>
</svg>
